<svg width="75" height="75" viewBox="0 0 75 75" fill="none" xmlns="http://www.w3.org/2000/svg">
<path d="M29.8352 43.74C30.3018 43.74 30.7185 43.6767 31.0852 43.55C31.4585 43.4167 31.7718 43.2333 32.0252 43C32.2852 42.76 32.4818 42.4767 32.6152 42.15C32.7552 41.8167 32.8252 41.45 32.8252 41.05C32.8252 40.5567 32.7418 40.1367 32.5752 39.79C32.4152 39.4367 32.1952 39.15 31.9152 38.93C31.6418 38.71 31.3252 38.55 30.9652 38.45C30.6052 38.3433 30.2285 38.29 29.8352 38.29C29.4418 38.29 29.0652 38.3433 28.7052 38.45C28.3452 38.55 28.0252 38.71 27.7452 38.93C27.4718 39.15 27.2518 39.4367 27.0852 39.79C26.9252 40.1367 26.8452 40.5567 26.8452 41.05C26.8452 41.45 26.9118 41.8167 27.0452 42.15C27.1852 42.4767 27.3818 42.76 27.6352 43C27.8952 43.2333 28.2085 43.4167 28.5752 43.55C28.9485 43.6767 29.3685 43.74 29.8352 43.74ZM29.8352 31.89C29.4085 31.89 29.0318 31.9533 28.7052 32.08C28.3852 32.2067 28.1152 32.38 27.8952 32.6C27.6818 32.82 27.5185 33.0767 27.4052 33.37C27.2985 33.6633 27.2452 33.9767 27.2452 34.31C27.2452 34.6367 27.2918 34.9533 27.3852 35.26C27.4785 35.5667 27.6285 35.84 27.8352 36.08C28.0418 36.3133 28.3085 36.5033 28.6352 36.65C28.9685 36.79 29.3685 36.86 29.8352 36.86C30.3018 36.86 30.6985 36.79 31.0252 36.65C31.3585 36.5033 31.6285 36.3133 31.8352 36.08C32.0418 35.84 32.1918 35.5667 32.2852 35.26C32.3785 34.9533 32.4252 34.6367 32.4252 34.31C32.4252 33.9767 32.3685 33.6633 32.2552 33.37C32.1485 33.0767 31.9852 32.82 31.7652 32.6C31.5518 32.38 31.2818 32.2067 30.9552 32.08C30.6352 31.9533 30.2618 31.89 29.8352 31.89ZM31.8852 37.53C32.7785 37.7833 33.4652 38.2067 33.9452 38.8C34.4252 39.3933 34.6652 40.1533 34.6652 41.08C34.6652 41.7067 34.5452 42.2733 34.3052 42.78C34.0718 43.28 33.7418 43.7067 33.3152 44.06C32.8952 44.4133 32.3885 44.6867 31.7952 44.88C31.2018 45.0667 30.5485 45.16 29.8352 45.16C29.1218 45.16 28.4685 45.0667 27.8752 44.88C27.2818 44.6867 26.7718 44.4133 26.3452 44.06C25.9185 43.7067 25.5885 43.28 25.3552 42.78C25.1218 42.2733 25.0052 41.7067 25.0052 41.08C25.0052 40.1533 25.2452 39.3933 25.7252 38.8C26.2052 38.2067 26.8918 37.7833 27.7852 37.53C27.0318 37.25 26.4618 36.8333 26.0752 36.28C25.6952 35.72 25.5052 35.0533 25.5052 34.28C25.5052 33.7533 25.6085 33.26 25.8152 32.8C26.0218 32.34 26.3152 31.94 26.6952 31.6C27.0752 31.26 27.5285 30.9933 28.0552 30.8C28.5885 30.6067 29.1818 30.51 29.8352 30.51C30.4818 30.51 31.0718 30.6067 31.6052 30.8C32.1385 30.9933 32.5952 31.26 32.9752 31.6C33.3552 31.94 33.6485 32.34 33.8552 32.8C34.0618 33.26 34.1652 33.7533 34.1652 34.28C34.1652 35.0533 33.9718 35.72 33.5852 36.28C33.2052 36.8333 32.6385 37.25 31.8852 37.53ZM36.7467 43.9C36.7467 43.7267 36.7767 43.5633 36.8367 43.41C36.9034 43.2567 36.9901 43.1233 37.0967 43.01C37.2101 42.8967 37.3434 42.8067 37.4967 42.74C37.6501 42.6733 37.8134 42.64 37.9867 42.64C38.1601 42.64 38.3234 42.6733 38.4767 42.74C38.6301 42.8067 38.7634 42.8967 38.8767 43.01C38.9901 43.1233 39.0801 43.2567 39.1467 43.41C39.2134 43.5633 39.2467 43.7267 39.2467 43.9C39.2467 44.08 39.2134 44.2467 39.1467 44.4C39.0801 44.5467 38.9901 44.6767 38.8767 44.79C38.7634 44.9033 38.6301 44.99 38.4767 45.05C38.3234 45.1167 38.1601 45.15 37.9867 45.15C37.8134 45.15 37.6501 45.1167 37.4967 45.05C37.3434 44.99 37.2101 44.9033 37.0967 44.79C36.9901 44.6767 36.9034 44.5467 36.8367 44.4C36.7767 44.2467 36.7467 44.08 36.7467 43.9ZM51.1733 30.67V31.47C51.1733 31.6967 51.1466 31.8833 51.0933 32.03C51.0466 32.1767 50.9999 32.3 50.9533 32.4L45.0133 44.37C44.9266 44.5433 44.8066 44.6933 44.6533 44.82C44.4999 44.94 44.2966 45 44.0433 45H42.7633L48.7833 33.18C48.8699 33.0133 48.9599 32.86 49.0533 32.72C49.1466 32.58 49.2466 32.4467 49.3533 32.32H41.8733C41.7599 32.32 41.6599 32.2767 41.5733 32.19C41.4866 32.0967 41.4433 31.9933 41.4433 31.88V30.67H51.1733Z" fill="#B7BACD"/>
<path d="M74 37.5C74 57.6584 57.6584 74 37.5 74C17.3416 74 1 57.6584 1 37.5C1 17.3416 17.3416 1 37.5 1C57.6584 1 74 17.3416 74 37.5ZM2.825 37.5C2.825 56.6505 18.3495 72.175 37.5 72.175C56.6505 72.175 72.175 56.6505 72.175 37.5C72.175 18.3495 56.6505 2.825 37.5 2.825C18.3495 2.825 2.825 18.3495 2.825 37.5Z" fill="#B7BACD"/>
<path d="M10.5248 11.4503C4.53315 17.6548 0.863513 25.7351 0.13427 34.3295C-0.594973 42.9239 1.66076 51.5069 6.52133 58.6322C11.3819 65.7576 18.5501 70.9895 26.8181 73.4464C35.086 75.9034 43.9482 75.435 51.9111 72.1204C59.8741 68.8057 66.4509 62.8474 70.5334 55.2494C74.6159 47.6515 75.9545 38.8785 74.3234 30.4088C72.6924 21.9392 68.1916 14.2907 61.5794 8.75225C54.9672 3.21382 46.6479 0.124056 38.0235 0.00365383L37.9711 3.75329C45.7331 3.86165 53.2205 6.64243 59.1714 11.627C65.1224 16.6116 69.1732 23.4953 70.6411 31.118C72.109 38.7407 70.9043 46.6364 67.2301 53.4745C63.5558 60.3126 57.6367 65.6751 50.47 68.6583C43.3034 71.6415 35.3274 72.063 27.8863 69.8518C20.4451 67.6406 13.9937 62.9318 9.61919 56.519C5.24468 50.1062 3.21452 42.3815 3.87084 34.6465C4.52716 26.9116 7.82983 19.6393 13.2223 14.0553L10.5248 11.4503Z" fill="url(#paint0_linear_1_73)"/>
<defs>
<linearGradient id="paint0_linear_1_73" x1="26.5" y1="-7.5" x2="5.5" y2="64" gradientUnits="userSpaceOnUse">
<stop stop-color="#00D4BE"/>
<stop offset="0.1875" stop-color="#1AE780"/>
<stop offset="0.833333" stop-color="#1AE780"/>
<stop offset="1" stop-color="#00D4BE"/>
</linearGradient>
</defs>
</svg>
